<svg width="24" height="25" viewBox="0 0 24 25" fill="none" xmlns="http://www.w3.org/2000/svg">
<g clip-path="url(#clip0_40000327_3836)">
<path fill-rule="evenodd" clip-rule="evenodd" d="M11 2.5C9.67392 2.5 8.40215 3.02678 7.46447 3.96447C6.52678 4.90215 6 6.17392 6 7.5C6 8.82608 6.52678 10.0979 7.46447 11.0355C8.40215 11.9732 9.67392 12.5 11 12.5C12.3261 12.5 13.5979 11.9732 14.5355 11.0355C15.4732 10.0979 16 8.82608 16 7.5C16 6.17392 15.4732 4.90215 14.5355 3.96447C13.5979 3.02678 12.3261 2.5 11 2.5ZM8 7.5C8 7.10603 8.0776 6.71593 8.22836 6.35195C8.37913 5.98797 8.6001 5.65726 8.87868 5.37868C9.15726 5.1001 9.48797 4.87913 9.85195 4.72836C10.2159 4.5776 10.606 4.5 11 4.5C11.394 4.5 11.7841 4.5776 12.1481 4.72836C12.512 4.87913 12.8427 5.1001 13.1213 5.37868C13.3999 5.65726 13.6209 5.98797 13.7716 6.35195C13.9224 6.71593 14 7.10603 14 7.5C14 8.29565 13.6839 9.05871 13.1213 9.62132C12.5587 10.1839 11.7956 10.5 11 10.5C10.2044 10.5 9.44129 10.1839 8.87868 9.62132C8.31607 9.05871 8 8.29565 8 7.5ZM10.337 15.521C10.6017 15.5042 10.8488 15.3829 11.0241 15.1838C11.1993 14.9847 11.2883 14.7242 11.2715 14.4595C11.2547 14.1948 11.1334 13.9477 10.9343 13.7724C10.7352 13.5972 10.4747 13.5082 10.21 13.525C8 13.665 6.015 14.383 4.559 15.338C3.831 15.816 3.211 16.369 2.763 16.968C2.32 17.557 2 18.255 2 19C2 20.535 3.278 21.346 4.495 21.763C5.775 22.202 7.485 22.401 9.327 22.47C9.58798 22.4734 9.83996 22.3747 10.0291 22.1949C10.2183 22.0151 10.3297 21.7684 10.3395 21.5076C10.3493 21.2468 10.2567 20.9925 10.0815 20.799C9.90637 20.6055 9.6625 20.4881 9.402 20.472C7.611 20.404 6.139 20.212 5.144 19.872C4.212 19.552 4.034 19.237 4.005 19.062L4 19C4 18.832 4.079 18.546 4.363 18.166C4.642 17.794 5.075 17.392 5.656 17.01C6.817 16.249 8.469 15.64 10.337 15.521ZM17 14.39C18.406 14.39 19.632 15.022 20.49 15.78C20.9057 16.1421 21.2623 16.5669 21.547 17.039C21.799 17.466 22 17.979 22 18.501C22 19.024 21.8 19.536 21.547 19.963C21.2624 20.4354 20.9057 20.8606 20.49 21.223C19.632 21.98 18.406 22.613 17 22.613C15.594 22.613 14.368 21.98 13.51 21.223C13.0943 20.8606 12.7376 20.4354 12.453 19.963C12.2 19.535 12 19.022 12 18.5C12 17.977 12.2 17.465 12.453 17.038C12.7376 16.5656 13.0943 16.1404 13.51 15.778C14.368 15.021 15.594 14.388 17 14.388V14.39ZM17 16.39C16.197 16.39 15.423 16.758 14.833 17.279C14.5754 17.502 14.3538 17.7634 14.176 18.054C14.1108 18.1603 14.0587 18.2741 14.021 18.393L14.001 18.48V18.522L14.021 18.609C14.044 18.686 14.089 18.799 14.176 18.949C14.32 19.192 14.542 19.466 14.833 19.723C15.423 20.243 16.197 20.613 17 20.613C17.803 20.613 18.577 20.243 19.167 19.723C19.4246 19.5 19.6462 19.2386 19.824 18.948C19.911 18.8 19.956 18.686 19.979 18.609L19.999 18.522C19.9998 18.5147 20.0001 18.5073 20 18.5L19.992 18.442C19.9565 18.3041 19.8998 18.1725 19.824 18.052C19.6461 17.7617 19.4245 17.5007 19.167 17.278C18.577 16.758 17.803 16.388 17 16.388V16.39ZM17.087 17.505C17.0144 17.632 16.9857 17.7794 17.0051 17.9244C17.0245 18.0694 17.0911 18.204 17.1945 18.3075C17.298 18.4109 17.4326 18.4775 17.5776 18.4969C17.7226 18.5163 17.87 18.4876 17.997 18.415L18 18.501C18 18.7025 17.9392 18.8993 17.8255 19.0656C17.7117 19.232 17.5504 19.3601 17.3626 19.4331C17.1748 19.5062 16.9694 19.5208 16.7731 19.4751C16.5769 19.4294 16.399 19.3255 16.2628 19.1769C16.1267 19.0284 16.0386 18.8422 16.0101 18.6427C15.9815 18.4432 16.014 18.2398 16.1031 18.0591C16.1921 17.8783 16.3338 17.7287 16.5093 17.6299C16.6849 17.531 16.8863 17.4875 17.087 17.505Z" fill="black"/>
</g>
<defs>
<clipPath id="clip0_40000327_3836">
<rect width="24" height="24" fill="white" transform="translate(0 0.5)"/>
</clipPath>
</defs>
</svg>
