<svg width="301" height="84" viewBox="0 0 301 84" fill="none" xmlns="http://www.w3.org/2000/svg">
<path d="M300.018 5.53452C300.29 5.58053 300.548 5.3971 300.594 5.12482C300.64 4.85253 300.457 4.59451 300.184 4.5485L300.101 5.04151L300.018 5.53452ZM0.101074 79.2747L3.81619e-05 79.7644C35.6145 87.1127 60.9567 84.2345 81.754 76.2285C102.528 68.2316 118.736 55.1254 136.054 42.1246C153.386 29.1138 171.865 16.1771 197.254 8.38215C222.641 0.587972 254.976 -2.07654 300.018 5.53452L300.101 5.04151L300.184 4.5485C255.024 -3.08265 222.527 -0.423044 196.961 7.42619C171.398 15.2746 152.804 28.3007 135.454 41.3248C118.091 54.3589 102.009 67.3599 81.3947 75.2953C60.8039 83.2217 35.6602 86.1011 0.20211 78.785L0.101074 79.2747Z" fill="#1A202C"/>
</svg>
